<svg width="58" height="58" viewBox="0 0 58 58" fill="none" xmlns="http://www.w3.org/2000/svg">
<path d="M28.9984 34.1529C31.8396 34.1529 34.1512 31.8413 34.1512 29C34.1512 26.1587 31.8396 23.8471 28.9984 23.8471C26.1571 23.8471 23.8489 26.1587 23.8489 29C23.8489 31.8413 26.159 34.1529 28.9984 34.1529ZM28.9984 25.7223C30.8057 25.7223 32.2762 27.1927 32.2762 29.0001C32.2762 30.8075 30.8057 32.278 28.9984 32.278C27.191 32.278 25.7239 30.8075 25.7239 29.0001C25.7239 27.1927 27.1929 25.7223 28.9984 25.7223ZM19.3738 31.0368L20.8946 31.74L21.3318 32.7969L20.7541 34.3665C20.6279 34.7095 20.7126 35.0947 20.971 35.3532L22.6484 37.0306C22.907 37.2891 23.292 37.3736 23.6353 37.2475L25.2049 36.6698L26.2613 37.1069L26.9613 38.6239C27.1145 38.9559 27.4468 39.1686 27.8125 39.1686H30.1877C30.5534 39.1686 30.8857 38.956 31.0389 38.6239L31.739 37.1069L32.7953 36.6698L34.365 37.2475C34.7083 37.3739 35.0933 37.2891 35.3518 37.0306L37.0292 35.3532C37.2876 35.0947 37.3723 34.7096 37.2461 34.3665L36.6684 32.7969L37.1057 31.74L38.6266 31.0368C38.9582 30.8834 39.1707 30.5513 39.1707 30.1859V27.8142C39.1707 27.4482 38.9578 27.1157 38.6254 26.9627L37.1055 26.2626L36.6685 25.2065L37.2463 23.6369C37.3723 23.2941 37.288 22.9094 37.0299 22.6508L35.3525 20.97C35.0941 20.711 34.7089 20.6262 34.3651 20.7525L32.7955 21.3302L31.7391 20.8931L31.0391 19.3761C30.8858 19.044 30.5536 18.8314 30.1878 18.8314H27.8127C27.4469 18.8314 27.1146 19.0441 26.9614 19.3761L26.2614 20.8931L25.205 21.3302L23.6354 20.7525C23.2918 20.6261 22.9065 20.711 22.648 20.97L20.9705 22.6508C20.7125 22.9093 20.6281 23.2941 20.7542 23.6369L21.332 25.2065L20.895 26.2626L19.375 26.9627C19.0427 27.1157 18.8298 27.4483 18.8298 27.8142V30.1859C18.8298 30.5514 19.042 30.8836 19.3738 31.0368ZM20.7046 28.4145L22.0128 27.812C22.2273 27.7132 22.3966 27.5371 22.4868 27.3189L23.2044 25.585C23.2946 25.3674 23.2994 25.1238 23.218 24.9028L22.7206 23.5515L23.5509 22.7195L24.9009 23.2163C25.1221 23.2977 25.3655 23.2927 25.5832 23.2027L27.3172 22.4852C27.5352 22.395 27.7112 22.226 27.8101 22.0116L28.4123 20.7062H29.5876L30.19 22.0116C30.2888 22.2259 30.4648 22.395 30.6828 22.4852L32.4167 23.2027C32.6343 23.2929 32.8781 23.2977 33.099 23.2163L34.449 22.7195L35.2794 23.5515L34.782 24.9027C34.7007 25.1237 34.7056 25.3673 34.7956 25.5849L35.5132 27.3188C35.6035 27.537 35.7727 27.713 35.9872 27.8118L37.2953 28.4144V29.5864L35.9859 30.1919C35.772 30.2908 35.6032 30.4666 35.513 30.6843L34.7955 32.4184C34.7055 32.636 34.7006 32.8796 34.782 33.1006L35.2791 34.4512L34.4496 35.2808L33.0991 34.7837C32.8776 34.7022 32.6341 34.7071 32.4168 34.7973L30.6829 35.5148C30.465 35.605 30.2889 35.774 30.1902 35.9884L29.5877 37.2938H28.4124L27.8102 35.9884C27.7113 35.7741 27.5353 35.605 27.3173 35.5148L25.5833 34.7973C25.3658 34.7073 25.122 34.7025 24.901 34.7837L23.5505 35.2808L22.7211 34.4513L23.2182 33.1007C23.2995 32.8796 23.2947 32.6361 23.2047 32.4184L22.4871 30.6843C22.397 30.4666 22.2282 30.2908 22.0143 30.1919L20.7049 29.5864V28.4144L20.7046 28.4145ZM29.0219 43.5478C26.4649 43.5478 23.9349 42.8721 21.7075 41.5857L21.7157 41.6162C21.8497 42.1163 21.5527 42.6303 21.0526 42.7643C20.9715 42.7859 20.8898 42.7964 20.8096 42.7964C20.3956 42.7964 20.0168 42.52 19.9046 42.1011L19.3133 39.8921C19.2489 39.6519 19.2827 39.3961 19.4071 39.1807C19.5315 38.9654 19.7363 38.8084 19.9764 38.744L22.1855 38.1528C22.6856 38.0189 23.1997 38.3159 23.3335 38.8161C23.4675 39.3162 23.1705 39.8302 22.6704 39.9641L22.6522 39.969C25.5424 41.636 29.0184 42.1186 32.2803 41.2455C39.0316 39.4357 43.0528 32.4703 41.2436 25.7185C40.8284 24.1732 40.1417 22.7442 39.2025 21.4719C38.895 21.0553 38.9834 20.4684 39.4 20.1608C39.8169 19.8532 40.4034 19.9418 40.7111 20.3584C41.7898 21.8198 42.5784 23.4597 43.0546 25.2327C45.1316 32.9836 40.5157 40.979 32.7655 43.0566C31.5332 43.3864 30.2745 43.5479 29.022 43.5479L29.0219 43.5478ZM36.2916 16.4115L36.2843 16.3838C36.1503 15.8837 36.4474 15.3697 36.9474 15.2359C37.4475 15.1018 37.9616 15.399 38.0954 15.8991L38.6866 18.1081C38.8205 18.6083 38.5236 19.1223 38.0234 19.2561L35.8145 19.8473C35.7334 19.8691 35.6517 19.8794 35.5715 19.8794C35.1575 19.8794 34.7786 19.6031 34.6665 19.184C34.5325 18.6839 34.8295 18.1699 35.3296 18.0361L35.3477 18.0312C32.457 16.364 28.981 15.8825 25.7203 16.758C22.4485 17.6332 19.7148 19.7301 18.0218 22.6629C16.3291 25.5951 15.8797 29.0112 16.7564 32.2817C17.1714 33.8272 17.8582 35.2561 18.7974 36.5285C19.1049 36.9451 19.0164 37.532 18.5998 37.8396C18.4323 37.9632 18.2371 38.0229 18.0439 38.0229C17.7563 38.0229 17.4727 37.8911 17.2889 37.642C16.21 36.1805 15.4215 34.5405 14.9454 32.7677C13.9388 29.013 14.4547 25.0917 16.398 21.7255C18.3416 18.3587 21.4798 15.9514 25.235 14.9469C28.9804 13.9416 32.9727 14.4954 36.2916 16.4115ZM28.0609 11.036V1.46258C28.0609 0.944843 28.4806 0.525078 28.9984 0.525078C29.5161 0.525078 29.9359 0.944843 29.9359 1.46258V5.31453C35.1541 5.52031 40.1967 7.4368 44.2264 10.7653C48.4398 14.2454 51.3586 19.0952 52.4451 24.4212C52.5486 24.9286 52.2212 25.4238 51.7139 25.5273C51.6507 25.5402 51.5877 25.5464 51.5255 25.5464C51.0893 25.5464 50.6986 25.2402 50.608 24.7961C48.5872 14.89 39.9765 7.61891 29.936 7.19059V11.036C29.936 11.5537 29.5162 11.9735 28.9985 11.9735C28.4807 11.9735 28.061 11.5537 28.061 11.036H28.0609ZM0.523438 29C0.523438 28.4823 0.943203 28.0625 1.46094 28.0625H5.08695C5.29273 22.8445 7.20969 17.802 10.539 13.7722C14.0197 9.55906 18.8691 6.64133 24.1939 5.55652C24.7006 5.45328 25.1963 5.7807 25.2997 6.28801C25.403 6.79543 25.0756 7.29043 24.5682 7.39379C14.6622 9.41199 7.39109 18.0214 6.96301 28.0626H11.0342C11.552 28.0626 11.9717 28.4824 11.9717 29.0001C11.9717 29.5179 11.552 29.9376 11.0342 29.9376H1.46094C0.943203 29.9376 0.523438 29.5179 0.523438 29.0001V29ZM29.9359 46.9674V56.5374C29.9359 57.0552 29.5161 57.4749 28.9984 57.4749C28.4806 57.4749 28.0609 57.0552 28.0609 56.5374V52.9114C22.844 52.7056 17.8024 50.789 13.773 47.4607C9.55988 43.9804 6.64133 39.1306 5.55488 33.8048C5.45141 33.2975 5.77883 32.8023 6.28613 32.6988C6.79262 32.5952 7.28855 32.9226 7.39215 33.4299C9.41281 43.3359 18.0221 50.607 28.0609 51.0355V46.9675C28.0609 46.4498 28.4806 46.03 28.9984 46.03C29.5161 46.03 29.9359 46.4498 29.9359 46.9675V46.9674ZM57.4766 29C57.4766 29.5177 57.0568 29.9375 56.5391 29.9375H52.9171C52.7585 35.2347 50.8355 40.3643 47.4594 44.4522C43.9791 48.6663 39.1303 51.5846 33.806 52.6693C33.7429 52.6822 33.6799 52.6884 33.6179 52.6884C33.1815 52.6884 32.7908 52.3821 32.7003 51.9379C32.597 51.4305 32.9244 50.9355 33.4318 50.8321C43.41 48.7992 50.7133 40.0754 51.0413 29.9375H46.9658C46.448 29.9375 46.0283 29.5177 46.0283 29C46.0283 28.4823 46.448 28.0625 46.9658 28.0625H56.5391C57.0568 28.0625 57.4766 28.4823 57.4766 29ZM57.4766 47.2166V56.5374C57.4766 57.0552 57.0568 57.4749 56.5391 57.4749H47.2149C46.6972 57.4749 46.2774 57.0552 46.2774 56.5374C46.2774 56.0197 46.6972 55.5999 47.2149 55.5999H55.6016V47.2166C55.6016 46.6988 56.0213 46.2791 56.5391 46.2791C57.0568 46.2791 57.4766 46.6988 57.4766 47.2166ZM0.523438 10.7834V1.46258C0.523438 0.944843 0.943203 0.525078 1.46094 0.525078H10.7818C11.2995 0.525078 11.7193 0.944843 11.7193 1.46258C11.7193 1.98031 11.2995 2.40008 10.7818 2.40008H2.39844V10.7834C2.39844 11.3012 1.97867 11.7209 1.46094 11.7209C0.943203 11.7209 0.523438 11.3012 0.523438 10.7834ZM57.4766 1.46258V10.7834C57.4766 11.3012 57.0568 11.7209 56.5391 11.7209C56.0213 11.7209 55.6016 11.3012 55.6016 10.7834V2.40008H47.2149C46.6972 2.40008 46.2774 1.98031 46.2774 1.46258C46.2774 0.944843 46.6972 0.525078 47.2149 0.525078H56.5391C57.0568 0.525078 57.4766 0.944843 57.4766 1.46258ZM11.7193 56.5374C11.7193 57.0552 11.2995 57.4749 10.7818 57.4749H1.46094C0.943203 57.4749 0.523438 57.0552 0.523438 56.5374V47.2166C0.523438 46.6988 0.943203 46.2791 1.46094 46.2791C1.97867 46.2791 2.39844 46.6988 2.39844 47.2166V55.5999H10.7818C11.2995 55.5999 11.7193 56.0197 11.7193 56.5374Z" fill="black"/>
</svg>
