<svg width="54" height="54" viewBox="0 0 54 54" fill="none" xmlns="http://www.w3.org/2000/svg">
<path d="M-2.36888e-05 53.244C-0.00164559 53.3437 0.016801 53.4428 0.0542193 53.5352C0.0916376 53.6277 0.147264 53.7117 0.217791 53.7822C0.288317 53.8527 0.372305 53.9083 0.46476 53.9458C0.557215 53.9832 0.65625 54.0016 0.755976 54H53.244C53.3437 54.0016 53.4427 53.9832 53.5352 53.9458C53.6276 53.9083 53.7116 53.8527 53.7822 53.7822C53.8527 53.7117 53.9083 53.6277 53.9457 53.5352C53.9831 53.4428 54.0016 53.3437 54 53.244V49.506C53.9981 48.0657 53.5689 46.6584 52.7668 45.4622C51.9647 44.2659 50.8257 43.3346 49.494 42.786C50.2835 42.1962 50.8673 41.3727 51.1625 40.4324C51.4577 39.4922 51.4494 38.4828 51.1386 37.5475C50.8279 36.6123 50.2305 35.7986 49.4313 35.222C48.632 34.6453 47.6715 34.335 46.686 34.335C45.7004 34.335 44.7399 34.6453 43.9407 35.222C43.1415 35.7986 42.5441 36.6123 42.2333 37.5475C41.9226 38.4828 41.9142 39.4922 42.2094 40.4324C42.5046 41.3727 43.0884 42.1962 43.878 42.786C42.2417 43.4686 40.909 44.7224 40.128 46.314C39.3438 44.7239 38.0092 43.4724 36.372 42.792C37.1615 42.2022 37.7453 41.3787 38.0405 40.4384C38.3357 39.4982 38.3274 38.4888 38.0166 37.5535C37.7059 36.6183 37.1085 35.8046 36.3093 35.228C35.51 34.6513 34.5495 34.341 33.564 34.341C32.5784 34.341 31.6179 34.6513 30.8187 35.228C30.0195 35.8046 29.4221 36.6183 29.1113 37.5535C28.8006 38.4888 28.7922 39.4982 29.0874 40.4384C29.3826 41.3787 29.9664 42.2022 30.756 42.792C29.1195 43.4704 27.7848 44.7198 27 46.308C26.2158 44.7179 24.8812 43.4664 23.244 42.786C23.9966 42.2153 24.5592 41.4305 24.858 40.5344C25.1568 39.6384 25.1778 38.673 24.9183 37.7648C24.6588 36.8566 24.1309 36.048 23.4039 35.445C22.6768 34.8421 21.7845 34.473 20.844 34.386V30.204H49.158C49.3569 30.204 49.5476 30.125 49.6883 29.9843C49.829 29.8437 49.908 29.6529 49.908 29.454V26.1C49.908 25.9011 49.829 25.7103 49.6883 25.5697C49.5476 25.429 49.3569 25.35 49.158 25.35H47.874C47.8768 25.3121 47.8768 25.274 47.874 25.236V0.756002C47.8772 0.559693 47.8027 0.370066 47.6667 0.228455C47.5307 0.0868425 47.3443 0.0047257 47.148 2.09821e-06H14.49C14.3907 -0.000811094 14.2924 0.0182326 14.2006 0.0560126C14.1089 0.0937927 14.0256 0.149546 13.9557 0.21999C13.8858 0.290434 13.8307 0.374146 13.7937 0.466199C13.7566 0.558252 13.7384 0.656787 13.74 0.756002V6.156C12.707 6.25527 11.7245 6.65007 10.9101 7.29316C10.0957 7.93625 9.48379 8.80038 9.14767 9.78216C8.81155 10.7639 8.76543 11.8218 9.01483 12.8291C9.26424 13.8364 9.7986 14.7505 10.554 15.462H10.272C9.45281 15.4636 8.64198 15.6266 7.88585 15.9417C7.12972 16.2568 6.4431 16.7179 5.86526 17.2985C5.28741 17.8791 4.82967 18.568 4.51819 19.3256C4.20671 20.0832 4.04761 20.8948 4.04998 21.714V35.67C3.56162 36.1404 3.18161 36.7116 2.93639 37.3438C2.69117 37.976 2.58662 38.654 2.63002 39.3307C2.67342 40.0074 2.86372 40.6665 3.18769 41.2622C3.51166 41.8579 3.96152 42.3758 4.50598 42.78C3.17379 43.3296 2.03456 44.2621 1.23247 45.4593C0.430373 46.6566 0.00145092 48.0649 -2.36888e-05 49.506V53.244ZM46.68 35.844C47.3113 35.844 47.9284 36.0312 48.4534 36.382C48.9783 36.7327 49.3874 37.2312 49.629 37.8145C49.8706 38.3977 49.9338 39.0395 49.8106 39.6587C49.6875 40.2779 49.3835 40.8467 48.9371 41.2931C48.4906 41.7395 47.9219 42.0435 47.3027 42.1667C46.6835 42.2898 46.0417 42.2266 45.4584 41.985C44.8752 41.7434 44.3767 41.3343 44.0259 40.8094C43.6752 40.2845 43.488 39.6673 43.488 39.036C43.488 38.1878 43.8249 37.3744 44.4246 36.7747C45.0244 36.1749 45.8378 35.838 46.686 35.838L46.68 35.844ZM46.68 43.728C48.2135 43.7296 49.6838 44.3395 50.7681 45.4239C51.8525 46.5082 52.4624 47.9785 52.464 49.512V52.512H40.872V49.512C40.8743 48.7483 41.0273 47.9925 41.3221 47.288C41.6169 46.5834 42.0478 45.9439 42.5901 45.4061C43.1323 44.8683 43.7753 44.4427 44.4823 44.1538C45.1892 43.8648 45.9462 43.7181 46.71 43.722L46.68 43.728ZM33.564 35.838C34.1953 35.838 34.8124 36.0252 35.3374 36.3759C35.8623 36.7267 36.2714 37.2252 36.513 37.8085C36.7546 38.3917 36.8178 39.0335 36.6946 39.6527C36.5715 40.2719 36.2675 40.8407 35.8211 41.2871C35.3746 41.7335 34.8059 42.0375 34.1867 42.1607C33.5675 42.2838 32.9257 42.2206 32.3424 41.979C31.7592 41.7374 31.2607 41.3283 30.9099 40.8034C30.5592 40.2785 30.372 39.6613 30.372 39.03C30.3736 38.1839 30.7104 37.3729 31.3086 36.7747C31.9069 36.1764 32.7179 35.8396 33.564 35.838ZM33.564 43.722C35.0975 43.7236 36.5678 44.3335 37.6521 45.4178C38.7365 46.5022 39.3464 47.9725 39.348 49.506V52.506H27.75V49.506C27.7531 48.7418 27.9071 47.9856 28.203 47.281C28.4989 46.5764 28.931 45.9371 29.4744 45.3997C30.0179 44.8624 30.662 44.4376 31.37 44.1497C32.0779 43.8618 32.8357 43.7165 33.6 43.722H33.564ZM26.25 49.506V52.506H14.628V49.506C14.6765 47.9972 15.3099 46.5663 16.3944 45.5161C17.4789 44.4659 18.9293 43.8787 20.439 43.8787C21.9486 43.8787 23.399 44.4659 24.4835 45.5161C25.568 46.5663 26.2015 47.9972 26.25 49.506ZM23.628 39.03C23.628 39.6613 23.4408 40.2785 23.09 40.8034C22.7393 41.3283 22.2408 41.7374 21.6575 41.979C21.0742 42.2206 20.4324 42.2838 19.8132 42.1607C19.1941 42.0375 18.6253 41.7335 18.1789 41.2871C17.7325 40.8407 17.4285 40.2719 17.3053 39.6527C17.1821 39.0335 17.2454 38.3917 17.487 37.8085C17.7285 37.2252 18.1377 36.7267 18.6626 36.3759C19.1875 36.0252 19.8047 35.838 20.436 35.838C20.8552 35.838 21.2702 35.9206 21.6575 36.081C22.0448 36.2414 22.3967 36.4765 22.6931 36.7729C22.9895 37.0693 23.2246 37.4212 23.385 37.8085C23.5454 38.1957 23.628 38.6108 23.628 39.03ZM48.408 28.704H20.874V26.85H48.408V28.704ZM46.398 1.506V25.236C46.3952 25.274 46.3952 25.3121 46.398 25.35H20.874V21.6H25.734C25.8494 21.6014 25.9636 21.5762 26.0677 21.5262C26.1717 21.4762 26.2629 21.4029 26.334 21.312L30.906 15.396C31.1649 15.0704 31.3552 14.6957 31.4655 14.2946C31.5759 13.8935 31.6039 13.4742 31.548 13.062C31.4914 12.6496 31.3509 12.2532 31.1352 11.8972C30.9196 11.5412 30.6333 11.2331 30.294 10.992C29.6316 10.5382 28.8202 10.3562 28.0274 10.4835C27.2346 10.6108 26.521 11.0377 26.034 11.676L22.998 15.468H18C18.7266 14.7804 19.248 13.9045 19.5059 12.9379C19.7638 11.9714 19.7482 10.9522 19.4607 9.99397C19.1733 9.03577 18.6253 8.17626 17.8779 7.5113C17.1305 6.84633 16.2131 6.40205 15.228 6.228V1.506H46.398ZM10.398 11.568C10.398 10.7931 10.6278 10.0356 11.0583 9.39128C11.4888 8.74697 12.1007 8.24479 12.8166 7.94824C13.5325 7.6517 14.3203 7.57411 15.0803 7.72529C15.8404 7.87646 16.5385 8.24962 17.0864 8.79756C17.6344 9.3455 18.0075 10.0436 18.1587 10.8036C18.3099 11.5637 18.2323 12.3514 17.9357 13.0674C17.6392 13.7833 17.137 14.3952 16.4927 14.8257C15.8484 15.2562 15.0909 15.486 14.316 15.486C13.7989 15.49 13.2862 15.3915 12.8074 15.1964C12.3286 15.0013 11.8931 14.7133 11.5261 14.3491C11.1591 13.9849 10.8678 13.5516 10.6691 13.0743C10.4703 12.597 10.368 12.0851 10.368 11.568H10.398ZM5.59798 21.714C5.59956 20.4616 6.09737 19.2608 6.9824 18.3747C7.86744 17.4885 9.06756 16.9892 10.32 16.986H23.358C23.4731 16.9895 23.5875 16.9658 23.6917 16.9168C23.796 16.8678 23.8872 16.7949 23.958 16.704L27.216 12.63C27.4647 12.3032 27.8263 12.0809 28.2302 12.0066C28.6341 11.9323 29.0512 12.0112 29.4 12.228C29.5741 12.3522 29.7209 12.5108 29.8313 12.6939C29.9418 12.8771 30.0136 13.0809 30.0422 13.2928C30.0709 13.5048 30.0559 13.7203 29.998 13.9262C29.9402 14.1321 29.8408 14.324 29.706 14.49L25.356 20.118H20.124C19.9251 20.118 19.7343 20.197 19.5936 20.3377C19.453 20.4783 19.374 20.6691 19.374 20.868V34.464C18.5029 34.6641 17.7073 35.1094 17.0813 35.7473C16.4553 36.3851 16.0251 37.1889 15.8414 38.0636C15.6578 38.9383 15.7284 39.8473 16.045 40.6831C16.3616 41.5188 16.9109 42.2465 17.628 42.78C15.9917 43.4626 14.6591 44.7164 13.878 46.308C13.0932 44.7161 11.756 43.4642 10.116 42.786C10.6805 42.3668 11.1433 41.8259 11.4701 41.2032C11.7968 40.5806 11.979 39.8924 12.0032 39.1897C12.0275 38.487 11.893 37.7878 11.6099 37.1442C11.3268 36.5006 10.9023 35.929 10.368 35.472V22.2C10.368 22.0011 10.289 21.8103 10.1483 21.6697C10.0077 21.529 9.81689 21.45 9.61798 21.45C9.41906 21.45 9.2283 21.529 9.08765 21.6697C8.94699 21.8103 8.86798 22.0011 8.86798 22.2V34.608C8.3694 34.4291 7.84366 34.3378 7.31398 34.338C6.70898 34.3386 6.10987 34.4568 5.54998 34.686L5.59798 21.714ZM7.36198 35.838C7.99329 35.838 8.61043 36.0252 9.13536 36.3759C9.66028 36.7267 10.0694 37.2252 10.311 37.8085C10.5526 38.3917 10.6158 39.0335 10.4926 39.6527C10.3695 40.2719 10.0655 40.8407 9.61906 41.2871C9.17265 41.7335 8.60389 42.0375 7.9847 42.1607C7.36552 42.2838 6.72371 42.2206 6.14045 41.979C5.55719 41.7374 5.05867 41.3283 4.70792 40.8034C4.35718 40.2785 4.16998 39.6613 4.16998 39.03C4.17143 38.1922 4.50163 37.3883 5.08958 36.7914C5.67752 36.1945 6.47624 35.8522 7.31398 35.838H7.36198ZM1.50598 49.506C1.55447 47.9972 2.18794 46.5663 3.27242 45.5161C4.3569 44.4659 5.80734 43.8787 7.31698 43.8787C8.82661 43.8787 10.2771 44.4659 11.3615 45.5161C12.446 46.5663 13.0795 47.9972 13.128 49.506V52.506H1.50598V49.506Z" fill="black"/>
</svg>
