<svg width="58" height="58" viewBox="0 0 58 58" fill="none" xmlns="http://www.w3.org/2000/svg">
<path d="M54.3846 9.38461H49.7661C50.4921 8.41976 50.923 7.22092 50.923 5.92307C50.923 2.74192 48.335 0.153839 45.1538 0.153839C41.1505 0.153839 37.298 1.61853 34.306 4.27815L29 8.99472L23.6939 4.27826C20.7018 1.61853 16.8494 0.153839 12.8461 0.153839C9.66496 0.153839 7.07689 2.74192 7.07689 5.92307C7.07689 7.22092 7.50785 8.41976 8.23385 9.38461H3.61535C1.70665 9.38461 0.153809 10.9375 0.153809 12.8461V17.4615C0.153809 19.3702 1.70665 20.9231 3.61535 20.9231V54.3846C3.61535 56.2933 5.16819 57.8461 7.07689 57.8461H50.923C52.8317 57.8461 54.3846 56.2933 54.3846 54.3846V20.9231C56.2933 20.9231 57.8461 19.3702 57.8461 17.4615V12.8461C57.8461 10.9375 56.2933 9.38461 54.3846 9.38461ZM35.8392 6.00292C38.4083 3.71922 41.7163 2.46153 45.1538 2.46153C47.0625 2.46153 48.6153 4.01438 48.6153 5.92307C48.6153 7.83176 47.0625 9.38461 45.1538 9.38461H32.0348L35.8392 6.00292ZM9.38458 5.92307C9.38458 4.01438 10.9374 2.46153 12.8461 2.46153C16.2837 2.46153 19.5916 3.71922 22.1608 6.00292L25.9651 9.38461H12.8461C10.9374 9.38461 9.38458 7.83176 9.38458 5.92307ZM2.4615 17.4615V12.8461C2.4615 12.2099 2.97912 11.6923 3.61535 11.6923H26.2142L23.5686 14.338C23.118 14.7885 23.118 15.5191 23.5686 15.9698C24.0192 16.4205 24.7498 16.4204 25.2005 15.9698L27.8461 13.3241V18.6154C26.8905 18.6154 5.00481 18.6154 3.61535 18.6154C2.97912 18.6154 2.4615 18.0978 2.4615 17.4615ZM27.8461 20.9231V30.1538H5.92304V20.9231H27.8461ZM5.92304 54.3846V32.4615H27.8461V55.5385H7.07689C6.44065 55.5385 5.92304 55.0208 5.92304 54.3846ZM50.923 55.5385H30.1538V32.4615H52.0769V54.3846C52.0769 55.0208 51.5593 55.5385 50.923 55.5385ZM52.0769 30.1538H30.1538V20.9231H52.0769V30.1538ZM55.5384 17.4615C55.5384 18.0978 55.0208 18.6154 54.3846 18.6154C53.0012 18.6154 31.11 18.6154 30.1538 18.6154V13.3241L32.7995 15.9697C33.25 16.4203 33.9805 16.4203 34.4313 15.9697C34.8819 15.5191 34.8819 14.7885 34.4313 14.3378L31.7857 11.6923H54.3846C55.0208 11.6923 55.5384 12.2099 55.5384 12.8461V17.4615Z" fill="black"/>
</svg>
