<svg width="48" height="58" viewBox="0 0 48 58" fill="none" xmlns="http://www.w3.org/2000/svg">
<path d="M8.45859 35.2801H33.3152C33.7031 35.2801 34.0184 34.9648 34.0184 34.577V28.3543C34.0184 25.4504 32.7961 22.8289 30.5777 20.9715C29.0168 19.6648 27.0141 18.7695 24.6797 18.3137C26.8195 17.0234 28.2551 14.6762 28.2551 11.9996C28.2551 7.93672 24.9492 4.63086 20.8863 4.63086C16.8234 4.63086 13.5176 7.93672 13.5176 11.9996C13.5176 14.6762 14.952 17.0234 17.093 18.3137C14.7586 18.7695 12.757 19.6648 11.1949 20.9715C8.97656 22.8277 7.7543 25.4504 7.7543 28.3543V34.577C7.75547 34.966 8.0707 35.2801 8.45859 35.2801ZM14.925 12.0008C14.925 8.71367 17.5992 6.03828 20.8875 6.03828C24.1758 6.03828 26.85 8.7125 26.85 12.0008C26.85 15.2891 24.1758 17.9633 20.8875 17.9633C17.5992 17.9633 14.925 15.2879 14.925 12.0008ZM9.16172 28.3555C9.16172 22.8969 13.7637 19.3684 20.8863 19.3684C28.009 19.3684 32.6109 22.8957 32.6109 28.3555V33.875H27.9961V28.9695C27.9961 28.5816 27.6809 28.2664 27.293 28.2664C26.9051 28.2664 26.5898 28.5816 26.5898 28.9695V33.875H15.1816V28.9695C15.1816 28.5816 14.8664 28.2664 14.4785 28.2664C14.0906 28.2664 13.7754 28.5816 13.7754 28.9695V33.875H9.16055V28.3555H9.16172ZM32.9578 39.2855C32.9578 39.6734 32.6426 39.9887 32.2547 39.9887H8.49023C8.10234 39.9887 7.78711 39.6734 7.78711 39.2855C7.78711 38.8977 8.10234 38.5824 8.49023 38.5824H32.2547C32.6426 38.5824 32.9578 38.8977 32.9578 39.2855ZM28.4367 45.3219C28.4367 45.7098 28.1215 46.025 27.7336 46.025H8.49023C8.10234 46.025 7.78711 45.7098 7.78711 45.3219C7.78711 44.934 8.10234 44.6188 8.49023 44.6188H27.7336C28.1215 44.6188 28.4367 44.934 28.4367 45.3219ZM41.0238 40.3555V4.38945C41.0238 2.38672 39.3949 0.757812 37.3922 0.757812H4.38164C2.37891 0.757812 0.75 2.38672 0.75 4.38945V51.5094C0.75 53.5121 2.37891 55.141 4.38164 55.141H33.0094C34.5199 56.4488 36.4875 57.2422 38.6367 57.2422C43.3852 57.2422 47.2488 53.3785 47.2488 48.6301C47.25 44.709 44.6156 41.3937 41.0238 40.3555ZM2.15625 51.5094V4.38945C2.15625 3.1625 3.15469 2.16406 4.38164 2.16406H37.3922C38.6191 2.16406 39.6176 3.1625 39.6176 4.38945V40.0742C39.2953 40.0379 38.9695 40.0168 38.6379 40.0168C33.8895 40.0168 30.0258 43.8805 30.0258 48.6289C30.0258 50.5391 30.6516 52.3039 31.7074 53.7336H4.38164C3.15469 53.7348 2.15625 52.7363 2.15625 51.5094ZM38.6379 55.8359C34.6641 55.8359 31.432 52.6027 31.432 48.6301C31.432 44.6562 34.6652 41.4242 38.6379 41.4242C42.6105 41.4242 45.8438 44.6574 45.8438 48.6301C45.8438 52.6027 42.6105 55.8359 38.6379 55.8359ZM42.8402 45.7719C43.1145 46.0461 43.1145 46.4914 42.8402 46.7656L38.1199 51.4859C37.9828 51.623 37.8023 51.6922 37.623 51.6922C37.4437 51.6922 37.2633 51.623 37.1262 51.4859L34.4344 48.7941C34.1602 48.5199 34.1602 48.0746 34.4344 47.8004C34.7086 47.5262 35.1539 47.5262 35.4281 47.8004L37.623 49.9953L41.8465 45.7719C42.1207 45.4977 42.566 45.4977 42.8402 45.7719Z" fill="black"/>
</svg>
