<svg width="60" height="58" viewBox="0 0 60 58" fill="none" xmlns="http://www.w3.org/2000/svg">
<path d="M58.125 51.5H53.4375V21.5C53.4375 21.2514 53.3387 21.0129 53.1629 20.8371C52.9871 20.6613 52.7486 20.5625 52.5 20.5625H38.4375V1.8125C38.4375 1.56386 38.3387 1.3254 38.1629 1.14959C37.9871 0.973772 37.7486 0.875 37.5 0.875H22.5C22.2514 0.875 22.0129 0.973772 21.8371 1.14959C21.6613 1.3254 21.5625 1.56386 21.5625 1.8125V13.0625H7.5C7.25136 13.0625 7.0129 13.1613 6.83709 13.3371C6.66127 13.5129 6.5625 13.7514 6.5625 14V51.5H1.875C1.62636 51.5 1.3879 51.5988 1.21209 51.7746C1.03627 51.9504 0.9375 52.1889 0.9375 52.4375V56.1875C0.9375 56.4361 1.03627 56.6746 1.21209 56.8504C1.3879 57.0262 1.62636 57.125 1.875 57.125H58.125C58.3736 57.125 58.6121 57.0262 58.7879 56.8504C58.9637 56.6746 59.0625 56.4361 59.0625 56.1875V52.4375C59.0625 52.1889 58.9637 51.9504 58.7879 51.7746C58.6121 51.5988 58.3736 51.5 58.125 51.5ZM38.4375 22.4375H51.5625V51.5H38.4375V22.4375ZM23.4375 2.75H36.5625V51.5H23.4375V2.75ZM8.4375 14.9375H21.5625V51.5H8.4375V14.9375ZM57.1875 55.25H2.8125V53.375H57.1875V55.25Z" fill="black"/>
<path d="M29.0625 6.5V13.0625C29.0625 13.3111 29.1613 13.5496 29.3371 13.7254C29.5129 13.9012 29.7514 14 30 14C30.2486 14 30.4871 13.9012 30.6629 13.7254C30.8387 13.5496 30.9375 13.3111 30.9375 13.0625V5.5625C30.9375 5.31386 30.8387 5.0754 30.6629 4.89959C30.4871 4.72377 30.2486 4.625 30 4.625H29.0625C28.8139 4.625 28.5754 4.72377 28.3996 4.89959C28.2238 5.0754 28.125 5.31386 28.125 5.5625C28.125 5.81114 28.2238 6.0496 28.3996 6.22541C28.5754 6.40123 28.8139 6.5 29.0625 6.5Z" fill="black"/>
<path d="M43.125 31.8125C42.8764 31.8125 42.6379 31.9113 42.4621 32.0871C42.2863 32.2629 42.1875 32.5014 42.1875 32.75C42.1875 32.9986 42.2863 33.2371 42.4621 33.4129C42.6379 33.5887 42.8764 33.6875 43.125 33.6875H46.875C47.1236 33.6875 47.3621 33.5887 47.5379 33.4129C47.7137 33.2371 47.8125 32.9986 47.8125 32.75V25.25C47.8125 25.0014 47.7137 24.7629 47.5379 24.5871C47.3621 24.4113 47.1236 24.3125 46.875 24.3125H43.125C42.8764 24.3125 42.6379 24.4113 42.4621 24.5871C42.2863 24.7629 42.1875 25.0014 42.1875 25.25C42.1875 25.4986 42.2863 25.7371 42.4621 25.9129C42.6379 26.0887 42.8764 26.1875 43.125 26.1875H45.9375V28.0625H44.0625C43.8139 28.0625 43.5754 28.1613 43.3996 28.3371C43.2238 28.5129 43.125 28.7514 43.125 29C43.125 29.2486 43.2238 29.4871 43.3996 29.6629C43.5754 29.8387 43.8139 29.9375 44.0625 29.9375H45.9375V31.8125H43.125Z" fill="black"/>
<path d="M16.875 16.8125H13.125C12.8764 16.8125 12.6379 16.9113 12.4621 17.0871C12.2863 17.2629 12.1875 17.5014 12.1875 17.75C12.1875 17.9986 12.2863 18.2371 12.4621 18.4129C12.6379 18.5887 12.8764 18.6875 13.125 18.6875H15.9375V19.2368L12.4621 22.7121C12.375 22.7991 12.306 22.9025 12.2589 23.0162C12.2117 23.13 12.1875 23.2519 12.1875 23.375V25.25C12.1875 25.4986 12.2863 25.7371 12.4621 25.9129C12.6379 26.0887 12.8764 26.1875 13.125 26.1875H16.875C17.1236 26.1875 17.3621 26.0887 17.5379 25.9129C17.7137 25.7371 17.8125 25.4986 17.8125 25.25C17.8125 25.0014 17.7137 24.7629 17.5379 24.5871C17.3621 24.4113 17.1236 24.3125 16.875 24.3125H14.0625V23.7632L17.5379 20.2879C17.625 20.2009 17.694 20.0975 17.7411 19.9838C17.7883 19.87 17.8125 19.7481 17.8125 19.625V17.75C17.8125 17.5014 17.7137 17.2629 17.5379 17.0871C17.3621 16.9113 17.1236 16.8125 16.875 16.8125Z" fill="black"/>
</svg>
